<?xml version="1.0" encoding="utf-8"?>
<!-- Generator: Adobe Illustrator 24.0.3, SVG Export Plug-In . SVG Version: 6.00 Build 0)  -->
<svg version="1.1" id="Capa_1" xmlns="http://www.w3.org/2000/svg" xmlns:xlink="http://www.w3.org/1999/xlink" x="0px" y="0px"
	 viewBox="0 0 283.46 283.46" style="enable-background:new 0 0 283.46 283.46;" xml:space="preserve">
<style type="text/css">
	.st0{fill-rule:evenodd;clip-rule:evenodd;fill:#383732;}
</style>
<g>
	<g>
		<g>
			<path class="st0" d="M277.3,137.58c0,73-59.64,132.19-133.22,132.19c-23.37,0-45.32-5.97-64.4-16.45L5.92,276.76l24.04-70.92
				c-12.13-19.92-19.11-43.29-19.11-68.26c0-73.01,59.64-132.2,133.23-132.2C217.66,5.38,277.3,64.57,277.3,137.58L277.3,137.58z
				 M144.08,26.44c-61.78,0-112.01,49.85-112.01,111.15c0,24.31,7.92,46.84,21.33,65.17l-13.99,41.27l43.04-13.67
				c17.68,11.6,38.87,18.37,61.63,18.37c61.75,0,112-49.86,112-111.13C256.09,76.29,205.84,26.44,144.08,26.44L144.08,26.44z
				 M211.36,168.03c-0.83-1.35-3-2.16-6.26-3.78c-3.27-1.62-19.33-9.46-22.32-10.54c-2.99-1.08-5.18-1.62-7.35,1.62
				c-2.18,3.24-8.44,10.54-10.35,12.71c-1.9,2.17-3.8,2.43-7.07,0.81c-3.27-1.62-13.8-5.05-26.27-16.08
				c-9.7-8.6-16.26-19.2-18.17-22.44c-1.9-3.24-0.19-4.99,1.43-6.61c1.47-1.46,3.27-3.78,4.9-5.67c1.64-1.9,2.18-3.26,3.27-5.42
				c1.09-2.16,0.55-4.05-0.28-5.67c-0.81-1.62-7.35-17.56-10.07-24.06c-2.71-6.48-5.43-6.23-7.35-6.23c-1.9,0-5.42,0.56-5.42,0.56
				s-6.55,0.81-9.54,4.05C87.53,84.52,79.1,92.37,79.1,108.3c0,15.94,11.69,31.36,13.32,33.51c1.64,2.17,22.59,35.95,55.79,48.93
				c33.2,12.97,33.2,8.64,39.19,8.1c5.98-0.53,19.32-7.83,22.04-15.4C212.17,175.86,212.17,169.37,211.36,168.03L211.36,168.03z
				 M211.36,168.03"/>
		</g>
	</g>
</g>
</svg>
