<?xml version="1.0" encoding="utf-8"?>
<!-- Generator: Adobe Illustrator 24.0.3, SVG Export Plug-In . SVG Version: 6.00 Build 0)  -->
<svg version="1.1" id="Capa_1" xmlns="http://www.w3.org/2000/svg" xmlns:xlink="http://www.w3.org/1999/xlink" x="0px" y="0px"
	 viewBox="0 0 283.46 283.46" style="enable-background:new 0 0 283.46 283.46;" xml:space="preserve">
<style type="text/css">
	.st0{fill:#070D13;}
	.st1{fill:#383732;}
</style>
<g>
	<g>
		<rect x="44.73" y="33.32" class="st0" width="1.57" height="179.88"/>
		<rect x="234.87" y="33.32" class="st0" width="1.57" height="179.88"/>
		
			<rect x="139.78" y="-60.18" transform="matrix(6.123234e-17 -1 1 6.123234e-17 106.4652 174.6993)" class="st0" width="1.6" height="188.59"/>
		
			<rect x="139.78" y="118.11" transform="matrix(6.123234e-17 -1 1 6.123234e-17 -71.8155 352.9751)" class="st0" width="1.6" height="188.58"/>
	</g>
	<g>
		<polyline class="st0" points="74.04,63.91 74.04,190.24 69.28,190.24 69.28,56.43 74.61,56.52 74.04,63.91 		"/>
		<polyline class="st0" points="138.45,157.56 135.53,154.08 209.93,56.55 214.92,57.09 		"/>
		<polyline class="st0" points="162.47,125.86 165.11,122.36 217.1,190.09 211.84,190.08 		"/>
		<polygon class="st0" points="74.03,63.89 74.61,56.52 135.64,145.05 132.55,149.02 		"/>
	</g>
	<g>
		<rect x="70.21" y="226.76" class="st1" width="1.28" height="21.78"/>
		<g>
			<polygon class="st1" points="109.51,248.54 108.16,248.54 116.41,226.76 117.71,226.76 			"/>
			<polygon class="st1" points="124.6,248.54 125.95,248.54 117.71,226.76 116.41,226.76 			"/>
		</g>
		<g>
			<rect x="144.5" y="226.76" class="st1" width="1.28" height="21.78"/>
			
				<rect x="149.36" y="243.57" transform="matrix(-1.836970e-16 1 -1 -1.836970e-16 397.8955 97.9479)" class="st1" width="1.23" height="8.7"/>
		</g>
		<g>
			<rect x="45.84" y="226.76" class="st1" width="1.28" height="21.78"/>
			<rect x="64.5" y="226.76" class="st1" width="1.28" height="21.78"/>
			<polygon class="st1" points="55.81,239.13 55.81,237.09 63.93,226.76 65.78,226.76 			"/>
			<polygon class="st1" points="55.82,239.13 55.82,237.09 47.7,226.76 45.85,226.76 			"/>
		</g>
		<g>
			<rect x="76.19" y="226.76" class="st1" width="1.28" height="21.78"/>
			<polygon class="st1" points="90.51,248.54 88.97,248.54 79.88,235.96 80.65,234.9 			"/>
			<polygon class="st1" points="77.46,239.32 77.42,237.14 84.98,226.76 86.52,226.76 			"/>
		</g>
		<g>
			<rect x="92.16" y="226.76" class="st1" width="1.28" height="21.78"/>
			<polygon class="st1" points="106.48,248.54 104.93,248.54 95.84,235.96 96.62,234.9 			"/>
			<polygon class="st1" points="93.43,239.32 93.38,237.14 100.95,226.76 102.49,226.76 			"/>
		</g>
		<g>
			<rect x="167.02" y="226.76" class="st1" width="1.28" height="21.78"/>
			<polygon class="st1" points="181.34,248.54 179.8,248.54 170.71,235.96 171.48,234.9 			"/>
			<polygon class="st1" points="168.29,239.32 168.24,237.14 175.81,226.76 177.35,226.76 			"/>
		</g>
		<g>
			<rect x="128.68" y="226.76" class="st1" width="1.28" height="21.78"/>
			
				<rect x="134.33" y="232.67" transform="matrix(6.123234e-17 -1 1 6.123234e-17 -102.71 372.5976)" class="st1" width="1.23" height="9.96"/>
			
				<rect x="134.33" y="242.94" transform="matrix(6.123234e-17 -1 1 6.123234e-17 -112.9808 382.8684)" class="st1" width="1.23" height="9.96"/>
			
				<rect x="134.33" y="222.4" transform="matrix(6.123234e-17 -1 1 6.123234e-17 -92.4348 362.3224)" class="st1" width="1.23" height="9.96"/>
		</g>
		<g>
			<rect x="200.67" y="226.76" class="st1" width="1.28" height="21.78"/>
			
				<rect x="206.31" y="232.67" transform="matrix(6.123234e-17 -1 1 6.123234e-17 -30.7242 444.5833)" class="st1" width="1.23" height="9.96"/>
			
				<rect x="206.31" y="242.94" transform="matrix(6.123234e-17 -1 1 6.123234e-17 -40.9951 454.8542)" class="st1" width="1.23" height="9.96"/>
			
				<rect x="206.31" y="222.4" transform="matrix(6.123234e-17 -1 1 6.123234e-17 -20.449 434.3082)" class="st1" width="1.23" height="9.96"/>
		</g>
		<rect x="216.44" y="226.73" class="st1" width="1.28" height="21.78"/>
		<g>
			<path class="st1" d="M228.46,236.44c-0.11-0.45-0.22-0.9-0.34-1.35c9.99,3.96,5.94,10.44,4.54,11.87
				c-2.18,2.24-8.79,3.71-11.21-3.59c0.39-0.14,0.8-0.28,1.19-0.42c2.23,6.72,7.58,4.52,9.16,3.14
				C233.24,244.84,235.85,239.92,228.46,236.44z"/>
			<path class="st1" d="M228.14,235.1c0.13,0.45,0.2,0.9,0.33,1.34c-7.74-3.26-5.03-7.67-3.42-8.95c2.11-1.67,6.09-1.31,7.43,1.96
				c-0.38,0.15-0.77,0.3-1.15,0.44c-0.9-2.23-3.65-2.83-5.4-1.57C224.38,229.46,223.14,233.16,228.14,235.1z"/>
		</g>
		<g>
			<rect x="184.11" y="226.76" class="st1" width="1.28" height="21.78"/>
			<polygon class="st1" points="196.19,248.54 194.64,248.54 189.61,241 191.01,240.78 			"/>
			
				<rect x="186.31" y="224.54" transform="matrix(6.123234e-17 -1 1 6.123234e-17 -40.4364 414.334)" class="st1" width="1.28" height="5.68"/>
			<path class="st1" d="M189.61,241l0-1.25c3.28-0.78,5.63-2.39,5.69-5.74c0.07-3.28-2.53-5.75-5.52-5.98l0-1.28
				c4.73,0.57,6.72,3.94,6.79,7.06C196.66,237.13,194.04,240.74,189.61,241z"/>
		</g>
	</g>
</g>
</svg>
